<svg xmlns="http://www.w3.org/2000/svg" viewBox="0 0 512 512" width="512" height="512">
  <defs>
    <clipPath id="sq">
      <rect width="512" height="512" rx="114" ry="114"/>
    </clipPath>
    <radialGradient id="bg" cx="50%" cy="40%" r="65%">
      <stop offset="0%" stop-color="#0e0b1a"/>
      <stop offset="100%" stop-color="#060409"/>
    </radialGradient>
    <radialGradient id="bgGlow" cx="50%" cy="37%" r="50%">
      <stop offset="0%" stop-color="#2a1060" stop-opacity="0.45"/>
      <stop offset="100%" stop-color="#060409" stop-opacity="0"/>
    </radialGradient>
    <linearGradient id="card" x1="0" y1="0" x2="1" y2="1">
      <stop offset="0%" stop-color="#12162a"/>
      <stop offset="100%" stop-color="#1c2244"/>
    </linearGradient>
    <linearGradient id="chip" x1="0" y1="0" x2="1" y2="1">
      <stop offset="0%" stop-color="#c8a030"/>
      <stop offset="100%" stop-color="#9a7010"/>
    </linearGradient>
  </defs>
  <g clip-path="url(#sq)">
    <rect width="512" height="512" fill="url(#bg)"/>
    <rect width="512" height="512" fill="url(#bgGlow)"/>
    <g transform="rotate(-6, 256, 367)">
      <rect x="102" y="270" width="308" height="194" rx="20" fill="url(#card)"/>
      <rect x="102" y="270" width="308" height="194" rx="20" fill="none" stroke="white" stroke-width="1.5" opacity="0.15"/>
      <rect x="102" y="270" width="308" height="42" rx="20" fill="white" opacity="0.05"/>
      <rect x="134" y="306" width="36" height="28" rx="4" fill="url(#chip)"/>
      <line x1="146" y1="306" x2="146" y2="334" stroke="#7a5a00" stroke-width="1.5" opacity="0.55"/>
      <line x1="158" y1="306" x2="158" y2="334" stroke="#7a5a00" stroke-width="1.5" opacity="0.55"/>
      <line x1="134" y1="317" x2="170" y2="317" stroke="#7a5a00" stroke-width="1.5" opacity="0.55"/>
      <line x1="134" y1="325" x2="170" y2="325" stroke="#7a5a00" stroke-width="1.5" opacity="0.55"/>
      <g transform="translate(374, 308)" fill="none" stroke="white" stroke-width="2" stroke-linecap="round" opacity="0.2">
        <path d="M0,-8 a8,8 0 0,1 0,16"/>
        <path d="M-4,-13 a13,13 0 0,1 0,26"/>
        <path d="M-8,-18 a18,18 0 0,1 0,36"/>
      </g>
      <rect x="134" y="424" width="90" height="7" rx="3.5" fill="white" opacity="0.2"/>
      <rect x="134" y="439" width="58" height="7" rx="3.5" fill="white" opacity="0.13"/>
    </g>
    <path fill-rule="evenodd" fill="#c8d4ff"
      d="M 176,188 a 80,103 0 1,0 160,0 a 80,103 0 1,0 -160,0 Z
         M 209,188 a 47,65 0 1,0 94,0 a 47,65 0 1,0 -94,0 Z"/>
  </g>
</svg>
