<svg xmlns="http://www.w3.org/2000/svg" viewBox="0 0 512 512" width="512" height="512">
  <defs>
    <clipPath id="sq">
      <rect width="512" height="512" rx="114" ry="114"/>
    </clipPath>
    <linearGradient id="bg" x1="0" y1="0" x2="1" y2="1">
      <stop offset="0%" stop-color="#1e1060"/>
      <stop offset="100%" stop-color="#0a1f6e"/>
    </linearGradient>
    <radialGradient id="bgGlow" cx="50%" cy="40%" r="52%">
      <stop offset="0%" stop-color="#3b1e9e" stop-opacity="0.6"/>
      <stop offset="100%" stop-color="#0a1f6e" stop-opacity="0"/>
    </radialGradient>
    <linearGradient id="card" x1="0" y1="0" x2="1" y2="1">
      <stop offset="0%" stop-color="#003ee0"/>
      <stop offset="100%" stop-color="#1a5aff"/>
    </linearGradient>
    <linearGradient id="chip" x1="0" y1="0" x2="1" y2="1">
      <stop offset="0%" stop-color="#f0c040"/>
      <stop offset="100%" stop-color="#c09000"/>
    </linearGradient>
  </defs>
  <g clip-path="url(#sq)">
    <rect width="512" height="512" fill="url(#bg)"/>
    <rect width="512" height="512" fill="url(#bgGlow)"/>
    <g transform="rotate(7, 256, 366)">
      <rect x="100" y="268" width="312" height="196" rx="22" fill="url(#card)"/>
      <rect x="100" y="268" width="312" height="52" rx="22" fill="white" opacity="0.08"/>
      <circle cx="126" cy="298" r="82" fill="white" opacity="0.04"/>
      <rect x="132" y="304" width="36" height="28" rx="4" fill="url(#chip)"/>
      <line x1="144" y1="304" x2="144" y2="332" stroke="#8a6200" stroke-width="1.5" opacity="0.55"/>
      <line x1="156" y1="304" x2="156" y2="332" stroke="#8a6200" stroke-width="1.5" opacity="0.55"/>
      <line x1="132" y1="315" x2="168" y2="315" stroke="#8a6200" stroke-width="1.5" opacity="0.55"/>
      <line x1="132" y1="323" x2="168" y2="323" stroke="#8a6200" stroke-width="1.5" opacity="0.55"/>
      <g transform="translate(374, 306)" fill="none" stroke="white" stroke-width="2" stroke-linecap="round" opacity="0.28">
        <path d="M0,-8 a8,8 0 0,1 0,16"/>
        <path d="M-4,-13 a13,13 0 0,1 0,26"/>
        <path d="M-8,-18 a18,18 0 0,1 0,36"/>
      </g>
      <rect x="132" y="424" width="94" height="8" rx="4" fill="white" opacity="0.25"/>
      <rect x="132" y="440" width="62" height="8" rx="4" fill="white" opacity="0.17"/>
    </g>
    <rect x="175" y="72" width="162" height="220" rx="68" fill="none" stroke="white" stroke-width="38"/>
  </g>
</svg>
