<svg xmlns="http://www.w3.org/2000/svg" viewBox="0 0 512 512">
  <defs>
    <linearGradient id="card" x1="0" y1="0" x2="1" y2="1">
      <stop offset="0%" stop-color="#002daa"/>
      <stop offset="100%" stop-color="#2347d8"/>
    </linearGradient>
    <linearGradient id="chip" x1="0" y1="0" x2="1" y2="1">
      <stop offset="0%" stop-color="#D4AF37"/>
      <stop offset="100%" stop-color="#A07800"/>
    </linearGradient>
  </defs>
  <g transform="rotate(-9, 256, 368)">
    <rect x="98" y="268" width="316" height="200" rx="22" fill="url(#card)"/>
    <rect x="98" y="268" width="316" height="56" rx="22" fill="white" opacity="0.07"/>
    <circle cx="370" cy="294" r="108" fill="white" opacity="0.04"/>
    <rect x="132" y="305" width="36" height="28" rx="4" fill="url(#chip)"/>
    <line x1="144" y1="305" x2="144" y2="333" stroke="#7a5a00" stroke-width="1.5" opacity="0.6"/>
    <line x1="156" y1="305" x2="156" y2="333" stroke="#7a5a00" stroke-width="1.5" opacity="0.6"/>
    <line x1="132" y1="316" x2="168" y2="316" stroke="#7a5a00" stroke-width="1.5" opacity="0.6"/>
    <line x1="132" y1="324" x2="168" y2="324" stroke="#7a5a00" stroke-width="1.5" opacity="0.6"/>
    <g transform="translate(376, 308)" fill="none" stroke="white" stroke-width="2" stroke-linecap="round" opacity="0.25">
      <path d="M0,-8 a8,8 0 0,1 0,16"/>
      <path d="M-4,-13 a13,13 0 0,1 0,26"/>
      <path d="M-8,-18 a18,18 0 0,1 0,36"/>
    </g>
    <rect x="132" y="428" width="96" height="8" rx="4" fill="white" opacity="0.25"/>
    <rect x="132" y="444" width="62" height="8" rx="4" fill="white" opacity="0.16"/>
  </g>
</svg>
