<svg xmlns="http://www.w3.org/2000/svg" viewBox="0 0 512 512">
  <defs>
    <linearGradient id="card" x1="0" y1="0" x2="1" y2="1">
      <stop offset="0%" stop-color="#12162a"/>
      <stop offset="100%" stop-color="#1c2244"/>
    </linearGradient>
    <linearGradient id="chip" x1="0" y1="0" x2="1" y2="1">
      <stop offset="0%" stop-color="#c8a030"/>
      <stop offset="100%" stop-color="#9a7010"/>
    </linearGradient>
  </defs>
  <g transform="rotate(-6, 256, 367)">
    <rect x="102" y="270" width="308" height="194" rx="20" fill="url(#card)"/>
    <rect x="102" y="270" width="308" height="194" rx="20" fill="none" stroke="white" stroke-width="1.5" opacity="0.15"/>
    <rect x="102" y="270" width="308" height="42" rx="20" fill="white" opacity="0.05"/>
    <rect x="134" y="306" width="36" height="28" rx="4" fill="url(#chip)"/>
    <line x1="146" y1="306" x2="146" y2="334" stroke="#7a5a00" stroke-width="1.5" opacity="0.55"/>
    <line x1="158" y1="306" x2="158" y2="334" stroke="#7a5a00" stroke-width="1.5" opacity="0.55"/>
    <line x1="134" y1="317" x2="170" y2="317" stroke="#7a5a00" stroke-width="1.5" opacity="0.55"/>
    <line x1="134" y1="325" x2="170" y2="325" stroke="#7a5a00" stroke-width="1.5" opacity="0.55"/>
    <g transform="translate(374, 308)" fill="none" stroke="white" stroke-width="2" stroke-linecap="round" opacity="0.2">
      <path d="M0,-8 a8,8 0 0,1 0,16"/>
      <path d="M-4,-13 a13,13 0 0,1 0,26"/>
      <path d="M-8,-18 a18,18 0 0,1 0,36"/>
    </g>
    <rect x="134" y="424" width="90" height="7" rx="3.5" fill="white" opacity="0.2"/>
    <rect x="134" y="439" width="58" height="7" rx="3.5" fill="white" opacity="0.13"/>
  </g>
</svg>
